<?xml version="1.0" standalone="no"?>
<!DOCTYPE svg PUBLIC "-//W3C//DTD SVG 20010904//EN"
 "http://www.w3.org/TR/2001/REC-SVG-20010904/DTD/svg10.dtd">
<svg version="1.0" xmlns="http://www.w3.org/2000/svg"
 width="512.000000pt" height="512.000000pt" viewBox="0 0 512.000000 512.000000"
 preserveAspectRatio="xMidYMid meet">
<metadata>
Created by potrace 1.11, written by Peter Selinger 2001-2013
</metadata>
<g transform="translate(0.000000,512.000000) scale(0.100000,-0.100000)"
fill="#000000" stroke="none">
<path d="M2012 5097 c-35 -25 -41 -43 -73 -237 -11 -69 -22 -137 -24 -152 -3
-16 -7 -40 -9 -55 -16 -94 -38 -218 -39 -219 -1 0 -33 -11 -72 -24 -38 -12
-117 -44 -174 -71 l-103 -49 -247 177 c-135 97 -260 181 -277 186 -18 5 -44 7
-58 3 -32 -8 -436 -407 -458 -451 -16 -34 -16 -61 1 -93 6 -12 86 -129 178
-259 91 -130 166 -241 167 -247 0 -6 -18 -51 -42 -100 -23 -48 -54 -123 -69
-165 -14 -42 -29 -80 -33 -84 -4 -5 -139 -30 -301 -57 -162 -26 -306 -54 -320
-60 -57 -26 -59 -41 -59 -365 0 -254 2 -302 16 -331 9 -19 25 -39 36 -45 17
-9 104 -26 353 -69 28 -4 91 -16 140 -26 50 -9 98 -17 107 -16 23 1 31 -11 62
-103 16 -44 48 -120 71 -170 l43 -89 -157 -221 c-87 -121 -168 -235 -181 -254
-14 -21 -25 -51 -26 -78 l-3 -44 214 -214 c186 -189 253 -245 290 -245 15 -1
85 45 282 183 120 84 230 161 244 170 25 17 28 16 99 -18 80 -40 206 -90 249
-100 l28 -6 43 -257 c23 -141 44 -268 47 -282 11 -65 26 -102 50 -125 l27 -24
313 2 313 2 1 -25 c1 -14 1 -85 1 -159 -1 -94 4 -145 13 -168 28 -67 -38 -64
1235 -61 l1150 3 27 28 28 27 0 938 0 937 -23 46 c-39 79 -125 149 -202 163
-14 2 -226 5 -472 5 l-446 1 21 64 21 64 65 12 c36 6 98 18 136 25 39 8 88 16
110 20 154 23 305 55 334 70 49 25 52 45 49 376 -3 286 -4 306 -23 331 -25 33
-76 47 -260 73 -23 3 -52 8 -65 10 -14 3 -45 8 -70 11 -25 3 -52 7 -60 9 -8 2
-35 7 -60 10 -25 3 -69 11 -98 18 l-53 12 -28 81 c-16 44 -47 120 -70 168 -22
49 -41 92 -41 96 0 4 77 117 172 251 94 134 177 260 184 279 10 28 10 41 -2
68 -13 32 -381 410 -433 444 -36 24 -82 22 -122 -5 -19 -13 -131 -93 -249
-178 -118 -85 -221 -158 -228 -163 -8 -5 -45 7 -96 32 -45 22 -123 55 -174 72
-72 25 -93 37 -97 54 -3 11 -12 64 -20 116 -9 52 -22 129 -30 170 -8 41 -16
91 -19 110 -3 19 -7 44 -10 55 -2 11 -7 40 -11 65 -13 77 -34 117 -70 134 -29
14 -78 16 -333 16 -291 -1 -300 -2 -330 -23z m529 -186 c3 0 16 -61 29 -133
12 -73 24 -142 26 -153 2 -11 16 -82 30 -159 13 -76 31 -151 39 -166 13 -25
68 -60 93 -60 28 0 180 -59 277 -107 134 -67 159 -75 193 -62 14 6 133 86 263
180 130 93 240 169 243 169 4 0 68 -61 142 -136 l135 -135 -167 -237 c-92
-130 -173 -252 -181 -270 -17 -41 -14 -52 47 -172 48 -96 100 -230 120 -307
17 -69 55 -98 147 -113 43 -7 85 -13 93 -15 8 -2 107 -18 220 -36 113 -18 207
-34 210 -37 3 -2 5 -91 5 -198 1 -189 0 -194 -20 -195 -24 -1 -55 -6 -115 -19
-25 -5 -61 -12 -80 -15 -19 -2 -48 -7 -65 -10 -16 -3 -55 -10 -85 -15 -30 -6
-64 -12 -75 -14 -11 -2 -52 -9 -91 -15 -103 -18 -116 -32 -168 -185 -25 -71
-48 -132 -53 -137 -5 -5 -183 -8 -405 -7 l-396 3 40 45 c102 112 183 281 206
430 13 88 5 261 -17 345 -50 188 -146 333 -315 473 -78 65 -266 144 -380 159
-66 9 -208 9 -268 0 -326 -50 -601 -302 -689 -632 -31 -114 -31 -308 0 -420
80 -293 293 -517 573 -603 94 -29 139 -36 253 -36 116 0 163 7 261 38 l72 23
-13 -36 c-9 -27 -13 -130 -13 -401 l-1 -365 -55 -274 c-31 -151 -59 -277 -62
-280 -7 -7 -385 -8 -389 -1 -1 3 -6 25 -9 50 -6 42 -17 113 -30 185 -3 17 -12
73 -21 125 -8 52 -17 105 -19 116 -3 12 -7 37 -10 56 -13 85 -44 118 -129 138
-77 19 -192 64 -293 117 -118 60 -134 64 -176 44 -19 -9 -139 -89 -267 -179
l-231 -163 -136 135 c-80 80 -134 142 -131 149 3 8 80 118 172 247 124 172
168 242 172 269 4 30 -7 58 -59 161 -35 69 -76 166 -91 215 -49 157 -63 177
-137 190 -69 13 -247 44 -395 70 -82 14 -152 30 -155 35 -3 5 -5 93 -5 197 l0
187 105 18 c58 10 123 20 145 23 22 3 47 8 55 10 8 2 33 6 55 10 22 3 65 10
95 15 30 5 70 12 89 15 50 8 89 32 104 63 8 15 26 68 41 117 15 50 57 150 93
223 54 110 64 140 60 168 -5 29 -129 215 -336 505 -12 17 -2 30 124 157 l138
139 100 -71 c151 -108 222 -158 269 -191 24 -16 59 -43 79 -58 64 -50 97 -47
234 21 66 33 170 76 230 95 61 20 118 39 128 42 26 11 54 81 62 155 3 35 8 67
10 71 3 3 7 26 10 50 3 24 7 55 10 69 2 14 7 41 10 60 3 19 10 60 15 90 5 30
12 73 16 95 3 22 10 45 14 50 7 8 344 13 381 6z m-41 -1515 c298 -73 505 -337
503 -641 -1 -199 -118 -415 -283 -524 -78 -51 -114 -68 -205 -92 -267 -72
-557 44 -708 283 -122 193 -130 441 -20 651 55 106 164 212 273 265 47 23 110
48 140 56 70 19 228 19 300 2z m2384 -1476 c13 -14 26 -36 28 -50 l3 -25
-1022 -1 -1023 -1 0 22 c0 30 35 73 63 77 12 2 451 3 974 3 l953 0 24 -25z
m27 -293 c4 -39 3 -1417 -1 -1418 -3 -1 -463 -2 -1022 -3 l-1018 -1 0 30 c-1
42 -1 1355 0 1382 l0 21 1020 0 c768 0 1020 -3 1021 -11z"/>
<path d="M3585 1374 c-110 -112 -204 -203 -209 -203 -5 -1 -48 32 -95 72 -47
40 -94 78 -103 85 -14 12 -25 4 -82 -64 -51 -59 -63 -79 -53 -88 7 -6 42 -36
77 -66 36 -30 67 -57 70 -60 3 -3 47 -41 98 -84 81 -68 95 -76 109 -64 10 7
133 129 276 271 l258 258 -23 27 c-13 15 -45 48 -73 73 l-50 45 -200 -202z"/>
<path d="M3579 856 l-204 -205 -105 90 -105 90 -48 -53 c-26 -29 -56 -64 -66
-78 l-19 -25 176 -152 177 -151 275 274 274 274 -69 70 c-38 39 -72 70 -75 70
-3 0 -98 -92 -211 -204z"/>
</g>
</svg>
